# xmcd CD database file
#
# Track frame offsets:
#	150
#	11725
#	27472
#	41349
#	54332
#	66788
#	79507
#	93282
#	106263
#	116541
#	127020
#	142399
#	156041
#	170066
#	186076
#
# Disc length: 2626 seconds
#
# Revision: 0
# Processed by: cddbd v1.5.1PL0 Copyright (c) Steve Scherf et al.
# Submitted via: CDex 1.50beta10
#
DISCID=c80a400f
DTITLE=WD Miller - Sugarland Run
DYEAR=1999
DGENRE=Country
TTITLE0=Sugarland Run
TTITLE1=Rodeo
TTITLE2=Annie
TTITLE3=Travel Light
TTITLE4=Good Dreams Can Die
TTITLE5=We're Not Breaking Up (Only I Am)
TTITLE6=Surrender
TTITLE7=I Forgive You
TTITLE8=Lil' Sure Shot
TTITLE9=Guessing Game
TTITLE10=Drunkenness Of Love
TTITLE11=Sunny Blue
TTITLE12=My Time
TTITLE13=Nothing To Lose
TTITLE14=Healing
EXTD=YEAR: 1999
EXTT0=
EXTT1=
EXTT2=
EXTT3=
EXTT4=
EXTT5=
EXTT6=
EXTT7=
EXTT8=
EXTT9=
EXTT10=
EXTT11=
EXTT12=
EXTT13=
EXTT14=
PLAYORDER=
